# xmcd
#
# Track frame offsets: 
#        150
#        13505
#        30030
#        46452
#        64127
#        82035
#        97625
#        116160
#        136355
#
# Disc length: 2068 seconds
#
# Revision: 7
# Processed by: cddbd v1.5.2PL0 Copyright (c) Steve Scherf et al.
# Submitted via: ExactAudioCopy v1.3
#
DISCID=67081209
DTITLE=Various Artist - Three Times A Lady Great Motown Love Songs
DYEAR=1986
DGENRE=R&B
TTITLE0=Supremes - Love Child
TTITLE1=Billy Preston And Syreeta - With You I'm Born Again
TTITLE2=Commodores - Three Times A Lady
TTITLE3=Charlene - I've Never Been To Me
TTITLE4=Diana Ross - It's My Turn
TTITLE5=Diana Ross - Touch Me In The Morning
TTITLE6=Smokey Robinson - Being With You
TTITLE7=Diana Ross And Lionel Richie - Endless Love
TTITLE8=DeBarge - All This Love
EXTD=YEAR: 1981
EXTT0=
EXTT1=
EXTT2=
EXTT3=
EXTT4=
EXTT5=
EXTT6=
EXTT7=
EXTT8=
PLAYORDER=
